<?xml version="1.0" standalone="no"?>
<!DOCTYPE svg PUBLIC "-//W3C//DTD SVG 20010904//EN"
 "http://www.w3.org/TR/2001/REC-SVG-20010904/DTD/svg10.dtd">
<svg version="1.0" xmlns="http://www.w3.org/2000/svg"
 width="67.000000pt" height="67.000000pt" viewBox="0 0 67.000000 67.000000"
 preserveAspectRatio="xMidYMid meet">
<metadata>
Created by potrace 1.16, written by Peter Selinger 2001-2019
</metadata>
<g transform="translate(0.000000,67.000000) scale(0.100000,-0.100000)"
fill="#000000" stroke="none">
<path d="M22 648 c-17 -17 -17 -609 0 -626 9 -9 94 -12 320 -12 294 0 308 1
318 19 14 27 14 585 0 612 -10 18 -24 19 -318 19 -226 0 -311 -3 -320 -12z
m316 -171 c23 1 59 3 80 5 39 3 110 -31 84 -40 -19 -6 -42 -57 -42 -91 0 -20
11 -43 31 -65 28 -33 29 -36 16 -63 -20 -38 -63 -83 -80 -83 -8 0 -28 5 -46
11 -24 9 -43 8 -78 -2 l-47 -13 -38 43 c-39 45 -68 119 -68 175 0 70 75 147
125 128 11 -4 39 -6 63 -5z"/>
</g>
</svg>
